<svg width="225" height="55" viewBox="0 0 225 55" fill="none" xmlns="http://www.w3.org/2000/svg">
<rect x="1" y="1" width="223" height="53" rx="26.5" fill="white" stroke="#57984C" stroke-width="2"/>
<path d="M77.0596 35V33.5474L78.3628 33.2734V24.6572L77.0596 24.375V22.9141H82.3638C83.4429 22.9141 84.3947 23.1686 85.2192 23.6777C86.0438 24.1813 86.6857 24.8813 87.145 25.7778C87.6099 26.6688 87.8423 27.6925 87.8423 28.8491V29.0732C87.8423 30.2188 87.6126 31.2397 87.1533 32.1362C86.6995 33.0272 86.0632 33.7272 85.2441 34.2363C84.4251 34.7454 83.4761 35 82.397 35H77.0596ZM80.7866 33.1489H82.2725C82.9421 33.1489 83.5093 32.9746 83.9741 32.626C84.4445 32.2718 84.8014 31.7876 85.0449 31.1733C85.2884 30.5591 85.4102 29.859 85.4102 29.0732V28.8408C85.4102 28.0439 85.2884 27.3411 85.0449 26.7324C84.8014 26.1182 84.4445 25.6395 83.9741 25.2964C83.5093 24.9478 82.9421 24.7734 82.2725 24.7734H80.7866V33.1489ZM93.2378 35.1743C92.3468 35.1743 91.5832 34.9806 90.9468 34.5933C90.3159 34.2059 89.8317 33.6691 89.4941 32.9829C89.1566 32.2912 88.9878 31.4971 88.9878 30.6006V30.4263C88.9878 29.5353 89.1566 28.7467 89.4941 28.0605C89.8317 27.3688 90.3159 26.8293 90.9468 26.4419C91.5832 26.049 92.3413 25.8525 93.2212 25.8525C94.1066 25.8525 94.8647 26.0462 95.4956 26.4336C96.132 26.821 96.619 27.3605 96.9565 28.0522C97.2941 28.7384 97.4629 29.5298 97.4629 30.4263V30.6006C97.4629 31.4971 97.2941 32.2912 96.9565 32.9829C96.619 33.6691 96.1348 34.2059 95.5039 34.5933C94.873 34.9806 94.1177 35.1743 93.2378 35.1743ZM93.2378 33.3149C93.8631 33.3149 94.3197 33.0659 94.6074 32.5679C94.9007 32.0698 95.0474 31.4141 95.0474 30.6006V30.4263C95.0474 29.6294 94.9007 28.9792 94.6074 28.4756C94.3141 27.972 93.8521 27.7202 93.2212 27.7202C92.5903 27.7202 92.131 27.972 91.8433 28.4756C91.5555 28.9792 91.4116 29.6294 91.4116 30.4263V30.6006C91.4116 31.4196 91.5555 32.0781 91.8433 32.5762C92.131 33.0687 92.5959 33.3149 93.2378 33.3149ZM101.24 35L99.1479 27.6787L98.0522 27.4795V26.0186H102.394V27.4712L101.447 27.6538L102.277 31.1484L102.443 31.8374H102.493L102.717 31.1484L104.56 26.0186H106.187L107.972 31.2148L108.204 31.9453H108.254L108.47 31.2148L109.449 27.6621L108.403 27.4712V26.0186H112.653V27.4795L111.607 27.6787L109.325 35H107.283L105.639 30.5508L105.349 29.563H105.299L105.008 30.5591L103.39 35H101.24ZM113.334 35V33.5474L114.496 33.2983V27.7285L113.209 27.4795V26.0186H116.754L116.862 27.3052C117.161 26.8459 117.529 26.4889 117.966 26.2344C118.409 25.9798 118.912 25.8525 119.477 25.8525C120.362 25.8525 121.056 26.1375 121.56 26.7075C122.069 27.2775 122.324 28.1712 122.324 29.3887V33.2983L123.486 33.5474V35H118.854V33.5474L119.892 33.2983V29.397C119.892 28.7938 119.77 28.3677 119.526 28.1187C119.288 27.8641 118.937 27.7368 118.472 27.7368C117.797 27.7368 117.28 28.019 116.92 28.5835V33.2983L117.899 33.5474V35H113.334ZM124.15 35V33.5474L125.32 33.2983V23.7607L124.025 23.5117V22.0508H127.744V33.2983L128.915 33.5474V35H124.15ZM133.829 35.1743C132.938 35.1743 132.174 34.9806 131.538 34.5933C130.907 34.2059 130.423 33.6691 130.085 32.9829C129.747 32.2912 129.579 31.4971 129.579 30.6006V30.4263C129.579 29.5353 129.747 28.7467 130.085 28.0605C130.423 27.3688 130.907 26.8293 131.538 26.4419C132.174 26.049 132.932 25.8525 133.812 25.8525C134.697 25.8525 135.456 26.0462 136.086 26.4336C136.723 26.821 137.21 27.3605 137.547 28.0522C137.885 28.7384 138.054 29.5298 138.054 30.4263V30.6006C138.054 31.4971 137.885 32.2912 137.547 32.9829C137.21 33.6691 136.726 34.2059 136.095 34.5933C135.464 34.9806 134.708 35.1743 133.829 35.1743ZM133.829 33.3149C134.454 33.3149 134.91 33.0659 135.198 32.5679C135.492 32.0698 135.638 31.4141 135.638 30.6006V30.4263C135.638 29.6294 135.492 28.9792 135.198 28.4756C134.905 27.972 134.443 27.7202 133.812 27.7202C133.181 27.7202 132.722 27.972 132.434 28.4756C132.146 28.9792 132.002 29.6294 132.002 30.4263V30.6006C132.002 31.4196 132.146 32.0781 132.434 32.5762C132.722 33.0687 133.187 33.3149 133.829 33.3149ZM142.146 35.1743C141.255 35.1743 140.547 34.9364 140.021 34.4604C139.495 33.979 139.232 33.326 139.232 32.5015C139.232 31.6603 139.573 30.9741 140.253 30.4429C140.94 29.9116 141.947 29.646 143.275 29.646H144.462V28.9819C144.462 28.5503 144.335 28.2017 144.08 27.936C143.831 27.6649 143.455 27.5293 142.951 27.5293C142.691 27.5293 142.456 27.5625 142.246 27.6289C142.041 27.6898 141.855 27.7783 141.689 27.8945L141.499 29.0815H139.755L139.722 26.749C140.193 26.4834 140.702 26.2676 141.25 26.1016C141.797 25.9355 142.409 25.8525 143.084 25.8525C144.257 25.8525 145.184 26.1265 145.865 26.6743C146.545 27.2222 146.886 27.9997 146.886 29.0068V32.709C146.886 32.8307 146.886 32.9497 146.886 33.0659C146.891 33.1821 146.902 33.2983 146.919 33.4146L147.857 33.5474V35H144.852C144.791 34.8451 144.73 34.679 144.669 34.502C144.609 34.3249 144.564 34.1478 144.537 33.9707C144.249 34.3359 143.909 34.6292 143.516 34.8506C143.128 35.0664 142.672 35.1743 142.146 35.1743ZM142.793 33.3813C143.131 33.3813 143.449 33.3066 143.748 33.1572C144.052 33.0023 144.29 32.8003 144.462 32.5513V31.1318H143.267C142.735 31.1318 142.331 31.2536 142.055 31.4971C141.784 31.7406 141.648 32.0339 141.648 32.377C141.648 32.6979 141.748 32.9469 141.947 33.124C142.152 33.2956 142.434 33.3813 142.793 33.3813ZM152.173 35.1743C151.459 35.1743 150.845 34.9917 150.331 34.6265C149.821 34.2557 149.431 33.741 149.16 33.0825C148.889 32.4185 148.753 31.6437 148.753 30.7583V30.584C148.753 29.6377 148.889 28.8104 149.16 28.1021C149.437 27.3937 149.83 26.8431 150.339 26.4502C150.848 26.0518 151.457 25.8525 152.165 25.8525C152.663 25.8525 153.095 25.9521 153.46 26.1514C153.831 26.3451 154.152 26.6217 154.423 26.9814V23.7607L153.128 23.5117V22.0508H156.847V33.2983L158.009 33.5474V35H154.747L154.564 33.9043C154.282 34.3193 153.944 34.6348 153.551 34.8506C153.158 35.0664 152.699 35.1743 152.173 35.1743ZM152.896 33.29C153.565 33.29 154.074 33.0106 154.423 32.4517V28.6416C154.074 28.0384 153.571 27.7368 152.912 27.7368C152.303 27.7368 151.861 27.9997 151.584 28.5254C151.313 29.0511 151.177 29.7373 151.177 30.584V30.7583C151.177 31.5441 151.31 32.1639 151.576 32.6177C151.841 33.0659 152.281 33.29 152.896 33.29ZM162.89 35V33.5474L164.176 33.2983V24.624L162.89 24.375V22.9141H168.642C169.566 22.9141 170.363 23.0773 171.033 23.4038C171.702 23.7248 172.217 24.1758 172.577 24.7568C172.936 25.3324 173.116 26.0047 173.116 26.7739C173.116 27.5431 172.936 28.2183 172.577 28.7993C172.217 29.3748 171.702 29.8231 171.033 30.144C170.363 30.4595 169.566 30.6172 168.642 30.6172H166.6V33.2983L167.895 33.5474V35H162.89ZM166.6 28.7495H168.642C169.317 28.7495 169.826 28.5669 170.169 28.2017C170.518 27.8309 170.692 27.3605 170.692 26.7905C170.692 26.2095 170.518 25.7308 170.169 25.3545C169.826 24.9727 169.317 24.7817 168.642 24.7817H166.6V28.7495ZM173.896 35V33.5474L175.2 33.2734V24.6572L173.896 24.375V22.9141H179.201C180.28 22.9141 181.232 23.1686 182.056 23.6777C182.881 24.1813 183.523 24.8813 183.982 25.7778C184.447 26.6688 184.679 27.6925 184.679 28.8491V29.0732C184.679 30.2188 184.45 31.2397 183.99 32.1362C183.536 33.0272 182.9 33.7272 182.081 34.2363C181.262 34.7454 180.313 35 179.234 35H173.896ZM177.624 33.1489H179.109C179.779 33.1489 180.346 32.9746 180.811 32.626C181.281 32.2718 181.638 31.7876 181.882 31.1733C182.125 30.5591 182.247 29.859 182.247 29.0732V28.8408C182.247 28.0439 182.125 27.3411 181.882 26.7324C181.638 26.1182 181.281 25.6395 180.811 25.2964C180.346 24.9478 179.779 24.7734 179.109 24.7734H177.624V33.1489ZM185.733 35V33.5474L187.02 33.2983V24.624L185.733 24.375V22.9141H195.354V26.2261H193.495L193.387 24.7817H189.444V28.1104H193.677V29.978H189.444V33.2983L190.739 33.5474V35H185.733Z" fill="#57984C"/>
<path fill-rule="evenodd" clip-rule="evenodd" d="M53.0334 20.046V24.176H56.5945V39.2232H53.0337V40.9314C53.0337 42.0738 52.2268 43 51.2314 43H30.8027C29.8323 43 29.0435 42.1199 29.004 41.0178V37.9045H55.2753V25.4945H29.0038V19.4353H29V13.0686C29 11.9259 29.8069 11 30.8025 11H44.7753V17.1185C44.7753 18.7327 45.9203 20.046 47.3267 20.046H53.0334ZM47.3266 18.3275H52.1303C50.689 16.3039 47.8686 13.0973 46.2732 11.6952V17.1185C46.273 17.7852 46.7456 18.3275 47.3266 18.3275ZM29.6232 28.587C30.088 28.508 30.7408 28.4485 31.6604 28.4485C32.5901 28.4485 33.2527 28.6265 33.6976 28.9824C34.1229 29.3187 34.4097 29.8724 34.4097 30.525C34.4097 31.1779 34.1921 31.7316 33.7965 32.1076C33.2822 32.5922 32.5207 32.81 31.6306 32.81C31.4328 32.81 31.2547 32.7999 31.1163 32.7801V35.1635H29.6232V28.587ZM31.1166 31.6132C31.2452 31.6431 31.4034 31.6526 31.621 31.6526C32.4221 31.6526 32.9166 31.2473 32.9166 30.5647C32.9166 29.9517 32.4913 29.5859 31.7397 29.5859C31.4331 29.5859 31.2254 29.6157 31.1166 29.6449V31.6132ZM35.3694 28.587C35.9233 28.4978 36.6453 28.4485 37.4066 28.4485C38.6726 28.4485 39.4935 28.6758 40.1365 29.1604C40.8288 29.6744 41.2639 30.4958 41.2639 31.6724C41.2639 32.9479 40.799 33.8282 40.1561 34.3723C39.4539 34.9557 38.3859 35.2327 37.0804 35.2327C36.2991 35.2327 35.7452 35.1833 35.3696 35.1337V28.587H35.3694ZM36.8826 34.0263C37.0112 34.056 37.2189 34.056 37.4068 34.056C38.7717 34.0662 39.6618 33.3142 39.6618 31.7222C39.6717 30.3379 38.8607 29.6057 37.5651 29.6057C37.2288 29.6057 37.0112 29.6357 36.8826 29.6648V34.0263ZM46.3273 28.4979H42.2529L42.2527 35.1636H43.7659V32.4835H46.1592V31.2573H43.7659V29.7342H46.3273V28.4979Z" fill="#57984C"/>
</svg>
